<svg width="24" height="24" viewBox="0 0 24 24" fill="none" xmlns="http://www.w3.org/2000/svg">
<g clip-path="url(#clip0_3024_15222)">
<path fill-rule="evenodd" clip-rule="evenodd" d="M23.6221 15C22.2899 20.1757 17.5916 24 12.0001 24C6.4086 24 1.7103 20.1757 0.378174 15H23.6221Z" fill="black"/>
<path fill-rule="evenodd" clip-rule="evenodd" d="M23.6219 15C23.8687 14.0411 24 13.0359 24 12C24 10.9641 23.8687 9.95886 23.6219 9H0.378052C0.131259 9.95886 0 10.9641 0 12C0 13.0359 0.131259 14.0411 0.378052 15H23.6219Z" fill="white"/>
<path fill-rule="evenodd" clip-rule="evenodd" d="M23.6221 9H0.378174C1.7103 3.82432 6.4086 0 12.0001 0C17.5916 0 22.2899 3.82432 23.6221 9Z" fill="#CE1126"/>
<path d="M12.0234 12.0703L14.0781 13.9805L13.9336 10.5156C13.9102 9.98829 13.4531 10.1094 13.1211 10.3008C12.7891 10.5156 12.4023 10.5156 12 10.375C11.5937 10.5156 11.2109 10.5156 10.8789 10.3008C10.5469 10.1094 10.0898 9.98829 10.0664 10.5156L9.92188 13.9805L12.0234 12.0703Z" fill="white"/>
<path fill-rule="evenodd" clip-rule="evenodd" d="M10.3555 10.1192C10.5203 10.1071 10.7219 10.1878 10.8886 10.2839L10.8895 10.2844L10.8895 10.2844C11.2149 10.495 11.5909 10.496 11.9936 10.3566L12.0082 10.3515L12.0064 10.3566C12.4051 10.4959 12.7851 10.495 13.1105 10.2844L13.1113 10.2839L13.1113 10.2839C13.2781 10.1878 13.4797 10.1071 13.6445 10.1192C13.7277 10.1254 13.8028 10.1554 13.8582 10.22C13.9133 10.2842 13.9471 10.3803 13.953 10.5148L13.953 10.5148L14.0976 13.9797C14.0979 13.9876 14.0934 13.9949 14.0863 13.9982C14.0791 14.0015 14.0706 14.0001 14.0648 13.9948L12.0233 12.0968L9.93496 13.9949C9.92914 14.0002 9.92071 14.0015 9.91358 13.9981C9.90646 13.9948 9.90203 13.9875 9.90236 13.9797L10.0469 10.5148L10.0469 10.5148C10.0529 10.3803 10.0866 10.2842 10.1417 10.22C10.1972 10.1554 10.2722 10.1254 10.3555 10.1192ZM10.0859 10.5165C10.0859 10.5165 10.0859 10.5165 10.0859 10.5165L9.94327 13.9346L12.0103 12.0559C12.0178 12.0491 12.0293 12.0491 12.0367 12.056L14.0566 13.9339L13.9141 10.5165C13.9083 10.3873 13.8761 10.3007 13.8286 10.2454C13.7814 10.1904 13.717 10.1637 13.6416 10.1581C13.4892 10.1469 13.2964 10.2223 13.1312 10.3174C12.7944 10.5351 12.4035 10.5353 11.9999 10.3956C11.5926 10.5352 11.2055 10.5352 10.8687 10.3174C10.7035 10.2223 10.5108 10.1469 10.3583 10.1581C10.2829 10.1637 10.2185 10.1904 10.1713 10.2454C10.1238 10.3007 10.0916 10.3872 10.0859 10.5165Z" fill="#C09300"/>
<path d="M10.3047 10.3945L10.1602 13.7656L9.92188 13.9805L10.0664 10.5156C10.1406 10.4609 10.2188 10.4219 10.3047 10.3945ZM10.5938 10.6367L10.4727 13.4531L10.2344 13.6992L10.3789 10.4453C10.4258 10.4922 10.5664 10.6094 10.5938 10.6367ZM10.8555 10.8516L10.7617 13.2031L10.5664 13.3906L10.6875 10.7109C10.7344 10.7539 10.8281 10.8242 10.8555 10.8516ZM11.1406 10.9727L11.0469 12.9766L10.8555 13.1289L10.9492 10.8984C10.9961 10.9219 11.0898 10.9727 11.1406 10.9727ZM11.4023 10.9727L11.3359 12.6406L11.1406 12.832L11.2148 10.9922C11.2578 10.9922 11.3828 10.9922 11.4023 10.9727Z" fill="#C09300"/>
<path d="M13.6953 10.3945L13.8398 13.7656L14.0781 13.9805L13.9336 10.5156C13.8594 10.4609 13.7812 10.4219 13.6953 10.3945ZM13.4062 10.6367L13.5273 13.4531L13.7656 13.6992L13.6211 10.4453C13.5742 10.4922 13.4336 10.6094 13.4062 10.6367ZM13.1445 10.8516L13.2383 13.2031L13.4336 13.3906L13.3125 10.7109C13.2656 10.7539 13.1719 10.8242 13.1445 10.8516ZM12.8594 10.9727L12.9531 12.9766L13.1445 13.1289L13.0508 10.8984C13.0039 10.9219 12.9102 10.9727 12.8594 10.9727ZM12.5977 10.9727L12.6641 12.6406L12.8594 12.832L12.7852 10.9922C12.7422 10.9922 12.6172 10.9922 12.5977 10.9727Z" fill="#C09300"/>
<path d="M12.0977 12.4492L12.3828 13.7656L12.2891 13.8594L12.1875 13.7852L12.0273 12.6133L12.0977 13.7852L12 13.9063L11.9063 13.7852L11.9766 12.6133L11.8125 13.7852L11.7109 13.8594L11.6172 13.7656L11.9023 12.4531H12.0977V12.4492Z" fill="#C09300"/>
<path fill-rule="evenodd" clip-rule="evenodd" d="M11.8895 12.4366H12.0981V12.4475L12.1142 12.4457L12.4013 13.7709L12.2912 13.8811L12.1644 13.7884L12.1716 13.7874L12.0703 13.0461L12.1155 13.7992L12.111 13.7955L12.0002 13.9329L11.8848 13.7839L11.8902 13.7842L11.9356 13.0282L11.8269 13.8043L11.8227 13.7985L11.7097 13.8811L11.5996 13.7709L11.8895 12.4366ZM12.0857 12.4696H11.9161L11.6357 13.7603L11.7131 13.8377L11.7976 13.776L11.9607 12.611L11.9935 12.6143L11.9235 13.78L12.0007 13.8797L12.0813 13.7798L12.0113 12.6143L12.0441 12.6111L12.2034 13.776L12.2878 13.8377L12.3652 13.7603L12.0857 12.4696Z" fill="#C09300"/>
<path d="M11.3555 11.875L10.7812 13.9063L11.5703 14.0234L11.9023 12.4961L11.3555 11.875Z" fill="white"/>
<path fill-rule="evenodd" clip-rule="evenodd" d="M11.3519 11.8575C11.3583 11.856 11.365 11.8582 11.3694 11.8632L11.9163 12.4843C11.9201 12.4885 11.9216 12.4944 11.9204 12.5L11.5883 14.0273C11.5863 14.0366 11.5775 14.0427 11.5681 14.0413L10.779 13.9241C10.7739 13.9234 10.7694 13.9204 10.7666 13.9161C10.7637 13.9117 10.7629 13.9064 10.7644 13.9014L11.3386 11.8702C11.3404 11.8638 11.3455 11.859 11.3519 11.8575ZM11.3642 11.9118L10.8046 13.8915L11.5567 14.0032L11.8832 12.5012L11.3642 11.9118Z" fill="#C09300"/>
<path fill-rule="evenodd" clip-rule="evenodd" d="M11.6192 12.397L11.2481 12.7485C11.2435 12.7529 11.237 12.7548 11.2308 12.7535C11.2245 12.7522 11.2193 12.7479 11.2168 12.7421L11.1465 12.578L11.1823 12.5626L11.2416 12.701L11.5924 12.3687L11.6192 12.397Z" fill="#C09300"/>
<path fill-rule="evenodd" clip-rule="evenodd" d="M11.4845 12.881L11.4064 12.1505L11.4451 12.1464L11.518 12.8276L11.7227 12.5547L11.7539 12.5781L11.6667 12.6943L11.763 13.0297L11.8079 12.9619L11.8404 12.9834L11.7771 13.0789L11.7922 13.1313L11.7547 13.1421L11.7488 13.1216L11.5803 13.3756L11.6636 13.7615L11.6254 13.7697L11.5494 13.4172L11.3952 13.6551C11.3912 13.6614 11.3838 13.6648 11.3763 13.6639C11.3689 13.6629 11.3626 13.6577 11.3603 13.6505L11.2797 13.4018L11.1299 13.6469C11.1258 13.6535 11.1182 13.6571 11.1105 13.656C11.1028 13.6549 11.0965 13.6494 11.0945 13.6419L10.9695 13.1888C10.9676 13.1821 10.9694 13.175 10.9742 13.17L11.2203 12.9161C11.2252 12.9111 11.2324 12.9091 11.2392 12.9108C11.246 12.9126 11.2513 12.9178 11.2532 12.9246L11.317 13.1596L11.4727 12.9531C11.4774 12.9469 11.4853 12.9441 11.4928 12.9459C11.5004 12.9477 11.5061 12.9538 11.5075 12.9615L11.5702 13.3203L11.7347 13.0724L11.6374 12.7334L11.5195 12.8906C11.5147 12.897 11.5064 12.8998 11.4987 12.8977C11.491 12.8956 11.4853 12.8889 11.4845 12.881ZM11.538 13.363L11.4768 13.0124L11.3241 13.2149C11.3197 13.2208 11.3122 13.2237 11.3049 13.2223C11.2976 13.2209 11.2917 13.2154 11.2897 13.2082L11.2245 12.9679L11.01 13.1892L11.1201 13.5881L11.2685 13.3453C11.2725 13.3388 11.2798 13.3352 11.2874 13.3361C11.295 13.337 11.3013 13.3422 11.3037 13.3495L11.3848 13.5995L11.538 13.363Z" fill="#C09300"/>
<path fill-rule="evenodd" clip-rule="evenodd" d="M11.1126 13.6175C11.1199 13.6187 11.1259 13.6241 11.128 13.6312L11.217 13.9322L11.3387 13.7283C11.3426 13.7217 11.35 13.718 11.3576 13.7189C11.3652 13.7198 11.3716 13.725 11.374 13.7323L11.4677 14.0213L11.4306 14.0334L11.3501 13.7852L11.2276 13.9905C11.2237 13.9971 11.2161 14.0008 11.2085 13.9998C11.2008 13.9988 11.1944 13.9934 11.1922 13.986L11.1019 13.6804L10.965 13.8708L10.9333 13.848L11.0935 13.6253C11.0979 13.6193 11.1053 13.6162 11.1126 13.6175Z" fill="#C09300"/>
<path d="M12.6445 11.875L13.2188 13.9063L12.4297 14.0234L12.0977 12.4961L12.6445 11.875Z" fill="white"/>
<path fill-rule="evenodd" clip-rule="evenodd" d="M12.6489 11.8575C12.6554 11.859 12.6605 11.8638 12.6623 11.8702L13.2365 13.9014C13.2379 13.9064 13.2371 13.9117 13.2343 13.9161C13.2315 13.9204 13.2269 13.9234 13.2218 13.9241L12.4328 14.0413C12.4234 14.0427 12.4145 14.0366 12.4125 14.0273L12.0805 12.5C12.0793 12.4944 12.0808 12.4885 12.0846 12.4843L12.6314 11.8632C12.6358 11.8582 12.6425 11.856 12.6489 11.8575ZM12.1176 12.5012L12.4441 14.0032L13.1963 13.8915L12.6366 11.9118L12.1176 12.5012Z" fill="#C09300"/>
<path fill-rule="evenodd" clip-rule="evenodd" d="M12.7585 12.701L12.4077 12.3687L12.3809 12.397L12.752 12.7485C12.7566 12.7529 12.7631 12.7548 12.7693 12.7535C12.7756 12.7522 12.7808 12.7479 12.7833 12.7421L12.8536 12.578L12.8178 12.5626L12.7585 12.701Z" fill="#C09300"/>
<path fill-rule="evenodd" clip-rule="evenodd" d="M12.4816 12.8276L12.5545 12.1464L12.5933 12.1505L12.5151 12.881C12.5143 12.8889 12.5086 12.8956 12.5009 12.8977C12.4932 12.8998 12.4849 12.897 12.4801 12.8906L12.3622 12.7334L12.265 13.0724L12.4295 13.3203L12.4922 12.9615C12.4935 12.9538 12.4992 12.9477 12.5068 12.9459C12.5143 12.9441 12.5223 12.9469 12.5269 12.9531L12.6827 13.1596L12.7465 12.9246C12.7483 12.9178 12.7536 12.9126 12.7604 12.9108C12.7672 12.9091 12.7744 12.9111 12.7793 12.9161L13.0254 13.17C13.0302 13.175 13.032 13.1821 13.0302 13.1888L12.9052 13.6419C12.9031 13.6494 12.8968 13.6549 12.8891 13.656C12.8814 13.6571 12.8738 13.6535 12.8697 13.6469L12.72 13.4018L12.6393 13.6505C12.637 13.6577 12.6307 13.6629 12.6233 13.6639C12.6158 13.6648 12.6085 13.6614 12.6044 13.6551L12.4502 13.4172L12.3742 13.7697L12.3361 13.7615L12.4193 13.3756L12.2508 13.1216L12.245 13.1421L12.2075 13.1313L12.2225 13.0789L12.1592 12.9834L12.1917 12.9619L12.2366 13.0297L12.3329 12.6943L12.2458 12.5781L12.277 12.5547L12.4816 12.8276ZM12.4616 13.363L12.6148 13.5995L12.6959 13.3495C12.6983 13.3422 12.7046 13.337 12.7122 13.3361C12.7198 13.3352 12.7272 13.3388 12.7311 13.3453L12.8795 13.5881L12.9896 13.1892L12.7751 12.9679L12.7099 13.2082C12.7079 13.2154 12.7021 13.2209 12.6947 13.2223C12.6874 13.2237 12.68 13.2208 12.6755 13.2149L12.5228 13.0124L12.4616 13.363Z" fill="#C09300"/>
<path fill-rule="evenodd" clip-rule="evenodd" d="M12.8874 13.6175C12.8947 13.6162 12.9021 13.6193 12.9064 13.6253L13.0666 13.848L13.0349 13.8708L12.898 13.6804L12.8078 13.986C12.8056 13.9934 12.7992 13.9988 12.7915 13.9998C12.7838 14.0008 12.7763 13.9971 12.7723 13.9905L12.6498 13.7852L12.5693 14.0334L12.5322 14.0213L12.626 13.7323C12.6283 13.725 12.6347 13.7198 12.6423 13.7189C12.6499 13.718 12.6573 13.7217 12.6613 13.7283L12.783 13.9322L12.8719 13.6312C12.874 13.6241 12.88 13.6187 12.8874 13.6175Z" fill="#C09300"/>
<path d="M12 14.8125C12.6016 14.8125 13.1719 14.7656 13.5078 14.6719C13.6484 14.6445 13.6484 14.5742 13.6484 14.4766C13.7891 14.4297 13.7188 14.2617 13.8164 14.2617C13.7148 14.293 13.6992 14.0976 13.5781 14.1211C13.5781 13.9531 13.4062 13.9336 13.2656 13.9805C12.9805 14.0742 12.4766 14.0976 12 14.0976C11.5195 14.0742 11.0234 14.0742 10.7344 13.9766C10.5938 13.9336 10.4258 13.9531 10.4258 14.1211C10.3047 14.0976 10.2852 14.2891 10.1836 14.2617C10.2852 14.2617 10.2109 14.4336 10.3516 14.4766C10.3516 14.5742 10.3516 14.6445 10.4961 14.6719C10.8281 14.7656 11.4023 14.8125 12 14.8125Z" fill="white"/>
<path fill-rule="evenodd" clip-rule="evenodd" d="M10.5156 13.9357C10.5851 13.9118 10.6706 13.9194 10.7449 13.9421L10.7459 13.9424L10.7459 13.9425C10.8857 13.9897 11.0779 14.0139 11.2979 14.029C11.4361 14.0385 11.5832 14.0443 11.7334 14.0503C11.8219 14.0538 11.9114 14.0573 12.0009 14.0617C12.2384 14.0616 12.4821 14.0558 12.7017 14.0383C12.9222 14.0208 13.116 13.9918 13.2544 13.9463L13.2656 13.9805L13.2542 13.9463C13.3289 13.9214 13.4154 13.9127 13.4859 13.936C13.5218 13.9479 13.5544 13.9684 13.578 14.0002C13.5953 14.0236 13.6066 14.0516 13.6115 14.0839C13.6351 14.0864 13.6556 14.0956 13.6733 14.1084C13.6984 14.1266 13.7179 14.1522 13.7333 14.1726L13.7338 14.1733C13.7506 14.1955 13.7625 14.2113 13.7753 14.2211C13.7808 14.2253 13.7857 14.2279 13.7909 14.2288C13.7991 14.2267 13.8076 14.2257 13.8164 14.2257C13.8342 14.2257 13.8494 14.2387 13.852 14.2564C13.8547 14.274 13.844 14.2909 13.827 14.2961C13.8192 14.2985 13.8117 14.3 13.8044 14.3007C13.8033 14.3017 13.8018 14.3034 13.8001 14.3064C13.7946 14.316 13.7913 14.3292 13.786 14.3501C13.7852 14.3533 13.7844 14.3568 13.7834 14.3605C13.7772 14.3847 13.7686 14.4152 13.7503 14.443C13.7352 14.466 13.7141 14.4862 13.6844 14.5007C13.684 14.5402 13.6814 14.582 13.6627 14.6174C13.6381 14.6639 13.5909 14.6921 13.5161 14.7069C13.1751 14.8018 12.6014 14.8485 12 14.8485C11.4026 14.8485 10.8251 14.8018 10.4878 14.7069C10.4115 14.6922 10.3633 14.6642 10.338 14.6178C10.3188 14.5824 10.316 14.5406 10.3156 14.5013C10.2861 14.4874 10.265 14.4675 10.2501 14.4445C10.232 14.4167 10.2238 14.3858 10.2179 14.3615C10.2172 14.3584 10.2165 14.3555 10.2158 14.3527C10.2105 14.3307 10.2072 14.3169 10.2016 14.307C10.1992 14.3028 10.1972 14.301 10.1959 14.3002C10.1958 14.3001 10.1957 14.3001 10.1957 14.3C10.1943 14.2992 10.1911 14.2977 10.1836 14.2977V14.2617L10.193 14.227C10.198 14.2283 10.2025 14.2287 10.2068 14.2281C10.213 14.2273 10.2188 14.2244 10.2254 14.2194C10.2385 14.2094 10.2508 14.1938 10.2675 14.1726C10.268 14.1719 10.2686 14.1713 10.2691 14.1706C10.285 14.1504 10.3051 14.1252 10.3306 14.1075C10.3484 14.0951 10.3689 14.0862 10.3924 14.0838C10.3971 14.0517 10.4082 14.0238 10.4251 14.0005C10.4482 13.9686 10.4803 13.9479 10.5156 13.9357ZM13.7331 14.2794C13.7325 14.279 13.732 14.2786 13.7314 14.2782C13.7106 14.2622 13.6932 14.2391 13.6791 14.2203C13.678 14.2188 13.6769 14.2174 13.6759 14.216C13.6595 14.1944 13.6461 14.1776 13.6311 14.1667C13.6179 14.1572 13.6042 14.1527 13.585 14.1564C13.5744 14.1585 13.5635 14.1557 13.5552 14.1489C13.5469 14.142 13.5421 14.1318 13.5421 14.1211C13.5421 14.0854 13.5331 14.0606 13.5201 14.0431C13.5071 14.0255 13.488 14.0126 13.4633 14.0044C13.4127 13.9876 13.343 13.9926 13.277 14.0146L13.2769 14.0147C13.1301 14.0629 12.9294 14.0925 12.7074 14.1101C12.4849 14.1278 12.2388 14.1337 12 14.1337H11.9982L11.9982 14.1336C11.91 14.1293 11.8208 14.1258 11.7323 14.1223C11.5812 14.1163 11.432 14.1104 11.2929 14.1009C11.0727 14.0857 10.8726 14.0612 10.7234 14.0108C10.6572 13.9907 10.5886 13.9867 10.5391 14.0038C10.5149 14.0121 10.4962 14.0251 10.4834 14.0427C10.4706 14.0603 10.4618 14.0853 10.4618 14.1211C10.4618 14.1318 10.457 14.142 10.4487 14.1489C10.4404 14.1557 10.4295 14.1585 10.4189 14.1564C10.3995 14.1527 10.3853 14.1571 10.3717 14.1666C10.3563 14.1773 10.3424 14.1939 10.3256 14.2152C10.3244 14.2167 10.3232 14.2182 10.322 14.2198C10.3075 14.2383 10.2898 14.2608 10.2691 14.2766C10.2686 14.277 10.2681 14.2774 10.2675 14.2778C10.2765 14.2962 10.2817 14.3182 10.2859 14.3362C10.2866 14.3391 10.2873 14.3419 10.2879 14.3445C10.2937 14.3686 10.2997 14.3887 10.3105 14.4052C10.3203 14.4204 10.3352 14.4339 10.3621 14.4421C10.3772 14.4468 10.3876 14.4607 10.3876 14.4766C10.3876 14.5282 10.3885 14.5599 10.4013 14.5834C10.4119 14.603 10.4355 14.6238 10.5028 14.6365L10.5059 14.6371L10.5059 14.6372C10.8329 14.7296 11.4029 14.7765 12 14.7765C12.6009 14.7765 13.1671 14.7296 13.4981 14.6372L13.5009 14.6364L13.5009 14.6365C13.566 14.6239 13.5887 14.6033 13.599 14.5837C13.6116 14.5601 13.6124 14.5282 13.6124 14.4766C13.6124 14.4611 13.6224 14.4473 13.6371 14.4424C13.6644 14.4333 13.6798 14.4192 13.6902 14.4034C13.7013 14.3865 13.7076 14.3663 13.7137 14.3427C13.7144 14.3398 13.7151 14.3369 13.7159 14.3338C13.72 14.317 13.725 14.2967 13.7331 14.2794Z" fill="#C09300"/>
<path d="M11.1873 13.9063C11.3787 13.9336 11.5935 13.9531 11.7615 13.9336C11.8592 13.9336 11.9295 14.0977 11.7342 14.1211C11.5701 14.1406 11.3084 14.1211 11.1639 14.0977C10.9803 14.0664 10.7967 14.0234 10.6131 13.9766C10.4451 13.9063 10.5662 13.7656 10.66 13.7852C10.8318 13.8399 11.0076 13.8789 11.1873 13.9063ZM12.8123 13.9063C12.6209 13.9336 12.406 13.9531 12.242 13.9336C12.1404 13.9336 12.0701 14.0977 12.2654 14.1211C12.4334 14.1406 12.6912 14.1211 12.8357 14.0977C12.9529 14.0742 13.2185 14.0274 13.3865 13.9766C13.5545 13.9063 13.4334 13.7656 13.3396 13.7852C13.1678 13.8399 12.992 13.8789 12.8123 13.9063Z" fill="white"/>
<path fill-rule="evenodd" clip-rule="evenodd" d="M10.6193 13.958C10.5808 13.9417 10.5619 13.9226 10.5539 13.9059C10.5462 13.8894 10.5475 13.8723 10.5557 13.856C10.5642 13.8393 10.5797 13.8241 10.5985 13.8142C10.617 13.8044 10.6372 13.8006 10.655 13.804C10.8277 13.8589 11.0041 13.8981 11.1843 13.9255L11.1843 13.9255L11.1845 13.9255C11.3757 13.9529 11.5921 13.9727 11.7625 13.9531C11.8006 13.9537 11.8341 13.9865 11.8383 14.0209C11.8403 14.0371 11.8358 14.0536 11.821 14.0679M11.7318 14.1017C11.5703 14.1209 11.3106 14.1017 11.167 14.0784C10.9847 14.0474 10.8022 14.0047 10.6193 13.958M10.5803 13.7797C10.6054 13.7665 10.6351 13.7601 10.6639 13.766L10.6659 13.7665L10.6658 13.7666C10.8366 13.8209 11.0113 13.8597 11.1901 13.8869C11.3813 13.9142 11.5939 13.9334 11.7592 13.9142L11.7615 13.9139V13.9141C11.8207 13.9141 11.8705 13.963 11.877 14.0162C11.8804 14.0439 11.872 14.0728 11.8481 14.0959C11.8246 14.1186 11.7878 14.1343 11.7365 14.1404L11.7365 14.1404C11.5699 14.1603 11.3062 14.1405 11.1607 14.1169L11.1606 14.1169L11.1606 14.1169C10.9762 14.0855 10.792 14.0424 10.6082 13.9954L10.6054 13.9947L10.6055 13.9945C10.5609 13.9759 10.5323 13.9512 10.5187 13.9226C10.5049 13.8935 10.5082 13.8635 10.5209 13.8383C10.5335 13.8135 10.5553 13.7928 10.5803 13.7797ZM13.4808 13.9226C13.4673 13.9512 13.4386 13.9759 13.394 13.9945L13.3922 13.9953L13.3921 13.9952C13.2538 14.037 13.0498 14.0762 12.9166 14.1018C12.8869 14.1075 12.8607 14.1125 12.8395 14.1168L12.8388 14.1169L12.8388 14.1169C12.6934 14.1405 12.4336 14.1603 12.2631 14.1404L12.2631 14.1404C12.2117 14.1343 12.1749 14.1186 12.1515 14.0959C12.1276 14.0727 12.1193 14.0438 12.123 14.016C12.1302 13.9625 12.1812 13.9141 12.242 13.9141H12.2443L12.2443 13.9142C12.4056 13.9334 12.6182 13.9142 12.8094 13.8869C12.9882 13.8597 13.163 13.8209 13.3337 13.7666L13.3356 13.7659L13.3356 13.766C13.3644 13.7601 13.3942 13.7665 13.4192 13.7797C13.4442 13.7928 13.466 13.8135 13.4786 13.8383C13.4913 13.8635 13.4946 13.8935 13.4808 13.9226ZM13.3445 13.804C13.1718 13.8589 12.9954 13.8981 12.8152 13.9255L12.815 13.9255C12.6239 13.9528 12.4075 13.9727 12.2409 13.9531C12.2005 13.9537 12.1662 13.987 12.1617 14.0211C12.1595 14.0372 12.164 14.0537 12.1786 14.0679C12.1938 14.0826 12.2214 14.0962 12.2677 14.1017L12.2654 14.1211L12.2676 14.1017C12.433 14.1209 12.6886 14.1017 12.8322 14.0784C12.8539 14.0741 12.8804 14.069 12.9103 14.0633C13.0435 14.0377 13.2438 13.9992 13.3799 13.9582C13.4186 13.9418 13.4376 13.9227 13.4456 13.9059C13.4534 13.8894 13.452 13.8723 13.4438 13.856C13.4354 13.8393 13.4198 13.8241 13.401 13.8142C13.3825 13.8044 13.3624 13.8006 13.3445 13.804Z" fill="#C09300"/>
<path d="M10.5901 13.8125C10.4455 13.7852 10.3791 13.9532 10.426 14.0508C10.4455 14 10.5471 14 10.5666 13.9532C10.594 13.8829 10.5471 13.8829 10.594 13.8125H10.5901ZM11.1643 14.2539C11.1643 14.1563 11.258 14.168 11.258 14.0743C11.258 14.0274 11.2346 13.9532 11.1877 13.9532C11.1604 13.9532 11.1369 13.9649 11.1213 13.9844C11.1018 14 11.094 14.0235 11.0901 14.0508C11.0705 14.1407 11.1643 14.1563 11.1643 14.2539ZM11.8479 13.9805C11.9885 13.9805 11.9729 14.168 11.9065 14.2657C11.9065 14.1954 11.7854 14.168 11.7854 14.1211C11.7854 14.0508 11.8948 14.0508 11.8479 13.9805ZM13.4065 13.8125C13.5549 13.7852 13.6213 13.9532 13.5744 14.0508C13.5549 14 13.4534 14 13.4338 13.9532C13.4065 13.8829 13.4534 13.8829 13.4065 13.8125ZM12.8401 14.25C12.8401 14.1524 12.7424 14.1641 12.7424 14.0704C12.7424 14.0235 12.7698 13.9493 12.8166 13.9493C12.8401 13.9532 12.8635 13.961 12.883 13.9805C12.8987 13.9961 12.9104 14.0196 12.9104 14.0469C12.9338 14.1407 12.8362 14.1524 12.8362 14.25H12.8401ZM12.1487 13.9805C12.008 13.9805 12.0237 14.168 12.0901 14.2657C12.0901 14.1954 12.2112 14.168 12.2112 14.1211C12.2112 14.0508 12.1018 14.0508 12.1487 13.9805Z" fill="white"/>
<path fill-rule="evenodd" clip-rule="evenodd" d="M10.5916 13.793C10.5107 13.7784 10.451 13.8188 10.419 13.8751C10.3875 13.9306 10.3816 14.0038 10.4082 14.0592C10.4115 14.0662 10.4187 14.0706 10.4265 14.0702C10.4343 14.0699 10.4411 14.065 10.4439 14.0578C10.4467 14.0506 10.4528 14.0439 10.4636 14.0372C10.4744 14.0304 10.4879 14.0248 10.5033 14.0185C10.5042 14.0182 10.5051 14.0179 10.5059 14.0175C10.5199 14.0119 10.5355 14.0056 10.5488 13.9978C10.5629 13.9895 10.5771 13.978 10.5844 13.9606L10.5844 13.9606L10.5845 13.9602C10.5921 13.9407 10.5948 13.9253 10.5951 13.9117C10.5953 13.9011 10.5938 13.8918 10.5927 13.8846C10.5924 13.883 10.5922 13.8815 10.592 13.8801C10.591 13.8725 10.5906 13.8664 10.5925 13.8588C10.5944 13.8508 10.599 13.8397 10.6099 13.8233C10.6139 13.8173 10.6143 13.8096 10.6109 13.8033C10.6075 13.7969 10.6009 13.793 10.5937 13.793H10.5916ZM10.5618 13.829C10.5117 13.8281 10.475 13.8556 10.453 13.8944C10.4328 13.9298 10.4259 13.9734 10.4331 14.0109C10.4363 14.0084 10.4396 14.0062 10.4429 14.0041C10.4571 13.9952 10.4739 13.9884 10.4888 13.9824C10.4893 13.9822 10.4898 13.982 10.4903 13.9818C10.5053 13.9757 10.5183 13.9705 10.529 13.9642C10.5399 13.9578 10.5457 13.9518 10.5483 13.9458M13.4381 13.829C13.4414 13.8363 13.4438 13.8432 13.4454 13.8497C13.4488 13.864 13.4479 13.8755 13.4465 13.8855C13.4462 13.8878 13.4459 13.8899 13.4456 13.8919C13.4445 13.8987 13.4437 13.9041 13.4438 13.911M13.4381 13.829C13.4882 13.8292 13.5247 13.8566 13.5465 13.8945C13.567 13.9299 13.5739 13.9734 13.5668 14.0109C13.5636 14.0084 13.5603 14.0062 13.5571 14.0041C13.5428 13.9952 13.526 13.9884 13.5112 13.9824L13.5096 13.9818C13.4947 13.9757 13.4816 13.9705 13.4709 13.9642C13.46 13.9578 13.4542 13.9518 13.4516 13.9458M13.5803 13.875C13.6124 13.9306 13.6183 14.0038 13.5918 14.0592C13.5884 14.0662 13.5812 14.0706 13.5734 14.0702C13.5656 14.0699 13.5588 14.065 13.556 14.0578C13.5532 14.0506 13.5471 14.0439 13.5364 14.0372C13.5255 14.0304 13.512 14.0248 13.4966 14.0185L13.494 14.0175C13.48 14.0119 13.4644 14.0056 13.4511 13.9978C13.437 13.9895 13.4228 13.978 13.4155 13.9606L13.4154 13.9602L13.4154 13.9602C13.4078 13.9407 13.4051 13.9253 13.4048 13.9117C13.4047 13.9011 13.4061 13.8918 13.4072 13.8846C13.4075 13.883 13.4077 13.8815 13.4079 13.8801C13.4089 13.8725 13.4093 13.8664 13.4074 13.8588C13.4055 13.8508 13.4009 13.8397 13.39 13.8233C13.3863 13.8178 13.3857 13.8109 13.3882 13.8049C13.3908 13.7988 13.3962 13.7945 13.4027 13.7933C13.4862 13.7779 13.5475 13.8182 13.5803 13.875ZM12.779 14.0012C12.7677 14.0228 12.7616 14.05 12.7616 14.0703C12.7616 14.0899 12.7666 14.103 12.7736 14.1133C12.781 14.1243 12.7911 14.133 12.8037 14.1439L12.8038 14.144C12.8141 14.1528 12.8261 14.1631 12.8361 14.1765C12.8443 14.1623 12.8539 14.1505 12.8626 14.1397C12.8639 14.1381 12.8653 14.1364 12.8666 14.1348C12.8773 14.1213 12.8855 14.1102 12.8901 14.0976C12.8945 14.0858 12.8962 14.0715 12.8912 14.0516L12.89 14.0469H12.8906C12.8906 14.0252 12.8813 14.0066 12.869 13.9942C12.8539 13.9791 12.8356 13.9724 12.815 13.9687C12.8032 13.9695 12.7903 13.9794 12.779 14.0012ZM12.8576 14.2274C12.863 14.2015 12.8774 14.1835 12.8938 14.1632C12.8948 14.1618 12.8959 14.1605 12.897 14.1591C12.9078 14.1457 12.9196 14.1302 12.9267 14.1112C12.9338 14.092 12.9357 14.0704 12.9296 14.0444C12.9289 14.0125 12.915 13.9851 12.8966 13.9667C12.873 13.9431 12.8451 13.9342 12.8196 13.93L12.8196 13.9297H12.8164C12.7816 13.9297 12.758 13.9569 12.7444 13.9832C12.7302 14.0104 12.7226 14.0437 12.7226 14.0703C12.7226 14.0975 12.7299 14.1182 12.7412 14.1351C12.7517 14.1506 12.7654 14.1624 12.7769 14.1723L12.7783 14.1735C12.7907 14.1841 12.8008 14.1931 12.8082 14.2045C12.8123 14.2109 12.8158 14.2184 12.818 14.2278C12.817 14.2347 12.8164 14.2421 12.8164 14.25C12.8164 14.2607 12.8251 14.2695 12.8359 14.2695H12.8398C12.8506 14.2695 12.8593 14.2607 12.8593 14.25C12.8593 14.2419 12.8587 14.2344 12.8576 14.2274ZM11.1072 13.9705C11.1265 13.9473 11.155 13.9336 11.1875 13.9336C11.2226 13.9336 11.2451 13.9613 11.2578 13.9876C11.2709 14.0149 11.2773 14.0481 11.2773 14.0742C11.2773 14.1013 11.2704 14.1218 11.2595 14.1387C11.2494 14.1542 11.2363 14.166 11.2252 14.1759C11.2248 14.1763 11.2243 14.1767 11.2239 14.1771C11.212 14.1878 11.2023 14.1967 11.1952 14.2081C11.1885 14.2189 11.1835 14.2329 11.1835 14.2539C11.1835 14.2647 11.1748 14.2734 11.164 14.2734C11.1532 14.2734 11.1445 14.2647 11.1445 14.2539C11.1445 14.2138 11.1266 14.1905 11.1062 14.1639C11.1055 14.163 11.1048 14.1622 11.1041 14.1613C11.0937 14.1477 11.0821 14.1323 11.075 14.1137C11.0676 14.0946 11.0651 14.0731 11.0706 14.0473C11.0747 14.0193 11.0832 13.9907 11.1072 13.9705ZM11.1657 14.1821C11.1573 14.1663 11.1472 14.1532 11.138 14.1414C11.137 14.1401 11.136 14.1388 11.135 14.1375C11.1245 14.1237 11.1163 14.1123 11.1113 14.0996C11.1067 14.0876 11.1048 14.0737 11.1089 14.0549L11.1089 14.0549L11.1091 14.0535C11.1128 14.0277 11.1196 14.0105 11.1332 13.9996L11.1335 14L11.1363 13.9965C11.1482 13.9817 11.166 13.9726 11.1875 13.9726C11.1992 13.9726 11.2118 13.982 11.2226 14.0045C11.2329 14.026 11.2383 14.0534 11.2383 14.0742C11.2383 14.094 11.2334 14.1072 11.2267 14.1175C11.2196 14.1285 11.21 14.1372 11.1979 14.148L11.1978 14.1481C11.1875 14.1573 11.1755 14.1681 11.1657 14.1821ZM11.8304 13.9712C11.8338 13.9649 11.8404 13.9609 11.8476 13.9609C11.8875 13.9609 11.9184 13.9744 11.9399 13.9982C11.9609 14.0214 11.971 14.0524 11.974 14.0846C11.9798 14.1486 11.9578 14.2244 11.9223 14.2766C11.9175 14.2836 11.9086 14.2868 11.9005 14.2842C11.8923 14.2817 11.8867 14.2742 11.8867 14.2656C11.8867 14.2541 11.8819 14.2436 11.8725 14.2327C11.8628 14.2215 11.8495 14.2112 11.8344 14.2004C11.8316 14.1985 11.8288 14.1965 11.8259 14.1945C11.8138 14.186 11.801 14.1771 11.791 14.168C11.7788 14.157 11.7656 14.1415 11.7656 14.1211C11.7656 14.0795 11.7957 14.056 11.8152 14.0408C11.8175 14.039 11.8196 14.0373 11.8216 14.0357C11.8325 14.0267 11.8374 14.0211 11.8391 14.016C11.8402 14.0128 11.8412 14.006 11.8314 13.9913C11.8274 13.9853 11.827 13.9776 11.8304 13.9712ZM11.8782 14.004C11.8923 14.0083 11.9029 14.0154 11.911 14.0243C11.9245 14.0393 11.9327 14.0613 11.9351 14.0882C11.9388 14.1291 11.9289 14.1773 11.9104 14.2181C11.9078 14.2143 11.905 14.2106 11.9021 14.2072C11.889 14.1921 11.8721 14.1794 11.8569 14.1686C11.8536 14.1662 11.8503 14.164 11.8471 14.1617C11.8353 14.1535 11.8252 14.1464 11.8171 14.1391C11.8066 14.1296 11.8046 14.124 11.8046 14.1211C11.8046 14.0995 11.8185 14.0883 11.8395 14.0714C11.8417 14.0696 11.8439 14.0678 11.8463 14.0658C11.8569 14.0572 11.8705 14.0453 11.8761 14.0284C11.8788 14.0204 11.8794 14.0123 11.8782 14.004ZM12.0561 13.9982C12.0776 13.9744 12.1085 13.9609 12.1484 13.9609C12.1556 13.9609 12.1622 13.9649 12.1656 13.9712C12.169 13.9776 12.1686 13.9853 12.1646 13.9913C12.1548 14.006 12.1558 14.0128 12.1569 14.016C12.1586 14.0211 12.1635 14.0267 12.1744 14.0357C12.1764 14.0373 12.1785 14.039 12.1808 14.0408C12.2003 14.056 12.2304 14.0795 12.2304 14.1211C12.2304 14.1415 12.2172 14.157 12.205 14.168C12.195 14.1771 12.1822 14.186 12.1701 14.1945C12.1672 14.1965 12.1644 14.1985 12.1616 14.2004C12.1465 14.2112 12.1332 14.2215 12.1235 14.2327C12.1141 14.2436 12.1093 14.2541 12.1093 14.2656C12.1093 14.2742 12.1037 14.2817 12.0955 14.2842C12.0874 14.2868 12.0785 14.2836 12.0737 14.2766C12.0382 14.2244 12.0162 14.1486 12.022 14.0846C12.025 14.0524 12.0351 14.0214 12.0561 13.9982ZM12.0856 14.2181C12.0671 14.1773 12.0572 14.1291 12.0609 14.0882C12.0633 14.0613 12.0715 14.0393 12.085 14.0243C12.0931 14.0154 12.1037 14.0083 12.1178 14.004C12.1166 14.0123 12.1172 14.0204 12.1199 14.0284C12.1255 14.0453 12.1391 14.0572 12.1497 14.0658C12.1521 14.0678 12.1543 14.0696 12.1566 14.0714C12.1775 14.0883 12.1914 14.0995 12.1914 14.1211C12.1914 14.124 12.1894 14.1296 12.1789 14.1391C12.1708 14.1464 12.1607 14.1535 12.1489 14.1617C12.1457 14.164 12.1424 14.1662 12.1391 14.1686C12.1239 14.1794 12.107 14.1921 12.0939 14.2072C12.091 14.2106 12.0882 14.2143 12.0856 14.2181Z" fill="#C09300"/>
<path d="M10.6406 13.8594C10.6875 13.8594 10.7617 13.8828 10.7812 13.9062L10.6406 13.8594ZM10.8789 13.9336C10.9023 13.9336 10.9961 13.9531 11.043 13.9805L10.8789 13.9336ZM11.7344 14.0273C11.6914 14.0273 11.5937 14.0273 11.5703 14.0508L11.7344 14.0234V14.0273ZM11.4766 14.0273C11.4492 14 11.3555 14 11.3086 14.0273H11.4766ZM13.3594 13.8594C13.3086 13.8594 13.2578 13.8789 13.2188 13.9062L13.3594 13.8594ZM13.125 13.9336C13.0938 13.9336 13.0039 13.9531 12.957 13.9805L13.125 13.9336ZM12.2656 14.0273C12.3086 14.0273 12.4062 14.0273 12.4336 14.0508L12.2656 14.0234V14.0273ZM12.5234 14.0273C12.5508 14 12.6445 14 12.6914 14.0273H12.5234Z" fill="white"/>
<path fill-rule="evenodd" clip-rule="evenodd" d="M10.6274 13.8572C10.6284 13.8507 10.6341 13.8459 10.6407 13.8459C10.666 13.8459 10.6977 13.8521 10.7255 13.8612C10.7394 13.8658 10.7527 13.8712 10.764 13.8771C10.775 13.8829 10.7851 13.8897 10.7917 13.8976C10.7956 13.9022 10.7959 13.9089 10.7925 13.9139C10.7891 13.9188 10.7828 13.921 10.7771 13.9191L10.6364 13.8722C10.6301 13.8701 10.6263 13.8637 10.6274 13.8572ZM13.2111 13.8952C13.252 13.8666 13.3054 13.8459 13.3594 13.8459C13.3661 13.8459 13.3717 13.8507 13.3728 13.8572C13.3738 13.8637 13.37 13.8701 13.3637 13.8722L13.2231 13.9191C13.2167 13.9212 13.2098 13.9183 13.2068 13.9123C13.2038 13.9063 13.2056 13.899 13.2111 13.8952ZM10.8656 13.9317C10.8665 13.925 10.8722 13.9201 10.879 13.9201C10.8925 13.9201 10.9233 13.9254 10.9556 13.9337C10.9881 13.9421 11.0247 13.9542 11.0498 13.9688C11.0557 13.9722 11.0581 13.9795 11.0555 13.9858C11.0528 13.992 11.0459 13.9953 11.0393 13.9934L10.8753 13.9466C10.8688 13.9447 10.8647 13.9384 10.8656 13.9317ZM13.0436 13.9337C13.0761 13.9253 13.1077 13.9201 13.1251 13.9201C13.1318 13.9201 13.1375 13.9251 13.1384 13.9318C13.1394 13.9384 13.1352 13.9448 13.1287 13.9466L12.9607 13.9935C12.9542 13.9953 12.9473 13.992 12.9447 13.9857C12.942 13.9795 12.9444 13.9722 12.9503 13.9688C12.9753 13.9542 13.0109 13.9421 13.0436 13.9337ZM11.4488 13.9989C11.4632 14.0026 11.4769 14.0085 11.4862 14.0178C11.49 14.0217 11.4912 14.0275 11.4891 14.0325C11.487 14.0376 11.4821 14.0408 11.4766 14.0408H11.3087C11.3026 14.0408 11.2972 14.0368 11.2956 14.0309C11.294 14.025 11.2966 14.0188 11.3019 14.0157C11.3281 14.0004 11.3659 13.9933 11.4 13.9933C11.4172 13.9933 11.4341 13.9951 11.4488 13.9989ZM12.6002 13.9933C12.6342 13.9933 12.672 14.0004 12.6983 14.0157C12.7036 14.0188 12.7061 14.025 12.7045 14.0309C12.7029 14.0368 12.6976 14.0408 12.6915 14.0408H12.5235C12.5181 14.0408 12.5131 14.0376 12.511 14.0325C12.5089 14.0275 12.5101 14.0217 12.514 14.0178C12.5233 14.0085 12.537 14.0026 12.5514 13.9989C12.566 13.9951 12.583 13.9933 12.6002 13.9933ZM11.7432 14.0131C11.7462 14.0157 11.7479 14.0195 11.7479 14.0234V14.0273C11.7479 14.0348 11.7419 14.0408 11.7344 14.0408C11.7279 14.0408 11.7202 14.0408 11.7116 14.0409L11.5726 14.0641C11.5668 14.0651 11.5611 14.0622 11.5584 14.057C11.5557 14.0517 11.5567 14.0454 11.5608 14.0412C11.5695 14.0326 11.5831 14.0275 11.5966 14.0241C11.6107 14.0206 11.6272 14.0183 11.6439 14.0168C11.6663 14.0148 11.6898 14.0142 11.7093 14.0139L11.7322 14.0101C11.7361 14.0095 11.7401 14.0106 11.7432 14.0131ZM12.257 14.0131C12.26 14.0106 12.264 14.0095 12.2679 14.0101L12.2915 14.014C12.3109 14.0142 12.3342 14.0148 12.3567 14.0168C12.3737 14.0183 12.3905 14.0206 12.4051 14.0241C12.4192 14.0275 12.4331 14.0325 12.4425 14.0405C12.447 14.0445 12.4485 14.051 12.4459 14.0565C12.4434 14.062 12.4375 14.0651 12.4315 14.0641L12.2891 14.0409C12.2804 14.0408 12.2724 14.0408 12.2657 14.0408C12.2582 14.0408 12.2522 14.0348 12.2522 14.0273V14.0234C12.2522 14.0195 12.2539 14.0157 12.257 14.0131Z" fill="#C09300"/>
<path d="M10.5973 14.2383C10.5855 14.2344 10.5738 14.2188 10.5816 14.207C10.5855 14.1875 10.5973 14.1797 10.609 14.1836C10.6207 14.1836 10.6363 14.2031 10.6363 14.207L10.6246 14.2305H10.6207C10.6207 14.2383 10.609 14.2383 10.5973 14.2383ZM12.2496 14.3555C12.2418 14.3555 12.2301 14.3398 12.2301 14.3359C12.2301 14.3203 12.2496 14.3047 12.2613 14.3047L12.2848 14.3164C12.2926 14.3242 12.2926 14.3437 12.2808 14.3516C12.2769 14.3594 12.2574 14.3594 12.2496 14.3516V14.3555ZM12.2574 14.4297C12.2457 14.4258 12.2418 14.418 12.2379 14.4062C12.2379 14.3906 12.2379 14.3867 12.2535 14.3789L12.2652 14.3711L12.2769 14.3789C12.2887 14.3867 12.3004 14.3906 12.3004 14.4023C12.3004 14.4102 12.2887 14.4219 12.2769 14.4258C12.2691 14.4336 12.2652 14.4336 12.2574 14.4258V14.4297Z" fill="#C09300"/>
<path d="M10.7344 14.1016C10.7227 14.1016 10.707 14.1133 10.6992 14.1172C10.6797 14.1211 10.6562 14.1328 10.6367 14.1172C10.6211 14.1133 10.5977 14.1172 10.5938 14.1406C10.5977 14.1641 10.6211 14.1719 10.6406 14.1602C10.6523 14.1445 10.6875 14.1328 10.6914 14.1602C10.6758 14.1836 10.6797 14.2109 10.668 14.2305C10.668 14.2461 10.6602 14.2578 10.6523 14.2695C10.6367 14.2695 10.6211 14.2695 10.6094 14.2813C10.6016 14.2813 10.5938 14.2813 10.5859 14.2852C10.5742 14.2891 10.5703 14.2969 10.5625 14.3047C10.5508 14.3203 10.5391 14.3398 10.5352 14.3633C10.5391 14.3828 10.5664 14.3867 10.5859 14.3906L10.6445 14.4102L10.7383 14.4375C10.7891 14.4492 10.8359 14.457 10.8828 14.4688L10.8984 14.4727C10.9219 14.4766 10.9297 14.457 10.9297 14.4414L10.9609 14.3359C10.9648 14.3203 10.9727 14.2891 10.9453 14.2969C10.9336 14.3047 10.918 14.3203 10.8984 14.3203C10.8711 14.3203 10.8867 14.3477 10.8984 14.3594C10.8984 14.375 10.8945 14.3984 10.8828 14.4102C10.8672 14.4219 10.8477 14.4102 10.8281 14.4063C10.8164 14.4063 10.7773 14.3984 10.793 14.375L10.8086 14.3203C10.8164 14.3047 10.8164 14.2813 10.8242 14.2617C10.8125 14.2422 10.793 14.2695 10.7773 14.2734C10.7656 14.2813 10.7305 14.2813 10.75 14.3047C10.7656 14.3164 10.7539 14.3359 10.75 14.3555C10.75 14.375 10.7266 14.3867 10.707 14.375C10.6875 14.375 10.6602 14.3594 10.6758 14.3438L10.6914 14.2891L10.7148 14.2305C10.7148 14.207 10.7227 14.1914 10.7305 14.1758C10.7305 14.1523 10.7461 14.1367 10.7461 14.1133C10.7461 14.1055 10.7383 14.1016 10.7344 14.1016ZM10.6211 14.3203C10.625 14.3164 10.625 14.3164 10.6289 14.3164C10.6289 14.3164 10.6289 14.3164 10.6328 14.3203C10.6367 14.3242 10.6367 14.332 10.6328 14.3359L10.6211 14.3438C10.6094 14.3438 10.6055 14.3398 10.6055 14.3359C10.6055 14.332 10.6055 14.3281 10.6133 14.3242C10.6172 14.3242 10.6211 14.3203 10.625 14.3203H10.6211ZM10.5938 14.4688C10.5781 14.457 10.582 14.4492 10.6016 14.4297C10.6133 14.4258 10.6172 14.4258 10.6289 14.4336C10.6484 14.4492 10.6484 14.457 10.6289 14.4727C10.6211 14.4766 10.6211 14.4766 10.6133 14.4766C10.6055 14.4766 10.6016 14.4766 10.5938 14.4727V14.4688ZM10.6836 14.5C10.6758 14.4961 10.6719 14.4922 10.668 14.4844C10.6641 14.4805 10.6641 14.4727 10.6641 14.4648C10.6719 14.4531 10.6758 14.4492 10.6914 14.4492C10.7148 14.4492 10.7148 14.4531 10.7188 14.4727C10.7188 14.4844 10.7188 14.4883 10.7109 14.4922C10.707 14.4961 10.7031 14.4961 10.6992 14.5C10.6953 14.5 10.6914 14.5 10.6875 14.5H10.6836ZM13.3594 14.5C13.3516 14.4961 13.3516 14.4922 13.3516 14.4844C13.3516 14.4727 13.3555 14.4648 13.375 14.457C13.3906 14.4492 13.4023 14.4492 13.4102 14.4648C13.418 14.4805 13.418 14.4883 13.4062 14.5C13.4023 14.5078 13.3984 14.5078 13.3828 14.5078C13.3672 14.5078 13.3633 14.5078 13.3594 14.5039V14.5ZM10.8086 14.5352C10.7969 14.5352 10.7891 14.5234 10.7891 14.5117C10.7891 14.5039 10.7891 14.5 10.7969 14.4922L10.8164 14.4883H10.832C10.8477 14.5039 10.8516 14.5156 10.8438 14.5273C10.832 14.5391 10.8242 14.5391 10.8047 14.5352H10.8086ZM11.4648 14.5664L11.457 14.5547C11.457 14.5391 11.457 14.5234 11.4648 14.5039C11.4648 14.4883 11.4648 14.4766 11.4688 14.4609L11.4805 14.375C11.4805 14.3594 11.4805 14.3477 11.4883 14.3359C11.4883 14.3086 11.4883 14.2891 11.4922 14.2695C11.4922 14.2578 11.5039 14.2383 11.5117 14.25C11.5234 14.2695 11.5391 14.2813 11.5547 14.2969C11.5664 14.3047 11.5547 14.3164 11.543 14.3203C11.5312 14.3203 11.5273 14.3359 11.5273 14.3477L11.5234 14.3867C11.5234 14.4063 11.5234 14.4258 11.5156 14.4453V14.5L11.5078 14.5352C11.5078 14.5469 11.5078 14.5625 11.4961 14.5664C11.4883 14.5742 11.4727 14.5742 11.4648 14.5664ZM12.3555 14.2695L12.3164 14.3086C12.2969 14.3203 12.3281 14.3281 12.332 14.3398C12.3398 14.3594 12.3398 14.375 12.3398 14.3945C12.3437 14.4102 12.3477 14.4258 12.3438 14.4453C12.3438 14.4648 12.3203 14.4609 12.3086 14.4727C12.293 14.4766 12.2891 14.4922 12.2773 14.5039C12.2734 14.5156 12.2695 14.5352 12.2656 14.5508C12.2656 14.5664 12.2578 14.5781 12.2656 14.5938L12.2695 14.5977H12.2852L12.3281 14.5938C12.3672 14.5898 12.4063 14.5898 12.4414 14.5859L12.5078 14.5781C12.5234 14.582 12.5352 14.5664 12.5352 14.5508C12.5234 14.5273 12.5313 14.5078 12.5234 14.4883C12.5156 14.4648 12.5195 14.4453 12.5156 14.4258C12.5156 14.4063 12.4961 14.3984 12.4844 14.4102C12.4727 14.4258 12.457 14.4258 12.4492 14.4375C12.4414 14.457 12.4688 14.457 12.4727 14.4688L12.4766 14.5156C12.4805 14.5313 12.4609 14.5313 12.4453 14.5352C12.4336 14.5391 12.4102 14.543 12.4023 14.5273C12.3945 14.5117 12.3945 14.4961 12.3945 14.4805C12.3945 14.4492 12.3867 14.4258 12.3867 14.3984C12.3867 14.3711 12.3789 14.3359 12.3789 14.3047C12.3789 14.2891 12.375 14.2695 12.3555 14.2695ZM12.3359 14.5156H12.3438V14.5391L12.3359 14.543C12.332 14.5469 12.3281 14.5469 12.3242 14.5469C12.3203 14.5469 12.3203 14.5469 12.3164 14.5469C12.3125 14.5391 12.3125 14.5313 12.3203 14.5234L12.3359 14.5156ZM11.4375 14.2422C11.4258 14.2422 11.4102 14.2617 11.3984 14.2578C11.3711 14.2617 11.375 14.2891 11.3984 14.2969V14.3203C11.3984 14.3477 11.3867 14.3672 11.3867 14.3906C11.3867 14.4141 11.3789 14.4414 11.3789 14.4688C11.3711 14.4961 11.3711 14.5234 11.3672 14.5508C11.3633 14.5742 11.3477 14.5664 11.332 14.5586V14.5273C11.3359 14.5039 11.3164 14.4961 11.2969 14.4922C11.2734 14.4922 11.2656 14.4766 11.2695 14.4609C11.2813 14.4492 11.3008 14.4492 11.3164 14.4492C11.3477 14.457 11.3438 14.418 11.3281 14.4023C11.3164 14.3867 11.293 14.3711 11.2852 14.3555C11.2852 14.332 11.2695 14.3047 11.25 14.293C11.2188 14.2891 11.1914 14.3164 11.1797 14.3477C11.1641 14.3477 11.1523 14.3516 11.1406 14.3594C11.1172 14.3633 11.0898 14.3984 11.1172 14.4141C11.1328 14.418 11.1836 14.4297 11.1602 14.4492C11.1484 14.4766 11.125 14.4766 11.1016 14.4688C11.082 14.4688 11.0586 14.457 11.0586 14.4336C11.0547 14.4102 11.0547 14.3867 11.0469 14.3633C11.0391 14.3398 11.0117 14.3477 11.0117 14.3711C10.9883 14.3867 10.9922 14.4102 11.0078 14.4297C11.0156 14.4492 11.0078 14.4766 10.9961 14.4961C10.9922 14.5273 10.9609 14.5273 10.9414 14.5313C10.9336 14.5391 10.8945 14.5313 10.9062 14.5547C10.9297 14.5625 10.957 14.5664 10.9805 14.5625C11.0039 14.5625 11.0234 14.5391 11.0391 14.5195C11.0547 14.5039 11.082 14.5156 11.1055 14.5156C11.1289 14.5156 11.1523 14.5273 11.1758 14.5156C11.1797 14.5039 11.2109 14.4727 11.2188 14.5039C11.2188 14.5273 11.2422 14.5391 11.2656 14.5391C11.293 14.5391 11.2812 14.5547 11.2812 14.5742C11.2812 14.6016 11.3008 14.6172 11.3242 14.6289H11.3477C11.3711 14.6172 11.3945 14.6094 11.4023 14.5859C11.4102 14.5664 11.4102 14.5391 11.418 14.5195C11.4258 14.4883 11.4297 14.4492 11.4297 14.418C11.4375 14.3867 11.4375 14.3555 11.4414 14.3203L11.4492 14.2539C11.4492 14.2383 11.4453 14.2383 11.4375 14.2422ZM11.2344 14.3633C11.2383 14.3633 11.2422 14.3711 11.2422 14.3789C11.2422 14.3906 11.2461 14.3984 11.2578 14.4023V14.4102L11.2305 14.418C11.2187 14.418 11.2031 14.4102 11.1953 14.4023L11.1914 14.3984L11.2148 14.375C11.2227 14.3672 11.2305 14.3633 11.2344 14.3633ZM13.2148 14.1289C13.1992 14.1289 13.1797 14.1328 13.1641 14.1367C13.1328 14.1367 13.1172 14.1641 13.1484 14.1836C13.168 14.2305 13.1953 14.1719 13.2227 14.1797C13.2656 14.1836 13.2695 14.2305 13.2773 14.2695C13.2773 14.3008 13.2891 14.3359 13.3008 14.3672C13.3281 14.3984 13.2773 14.4219 13.2578 14.3984C13.2383 14.375 13.1953 14.3516 13.1758 14.3789C13.1484 14.3906 13.1445 14.4258 13.125 14.4375C13.0898 14.4492 13.0859 14.4023 13.0664 14.3867C13.0469 14.3594 13.0156 14.3555 12.9883 14.3477C12.9766 14.3203 12.9805 14.2773 12.957 14.2578C12.9336 14.2695 12.8906 14.3086 12.9258 14.332C12.957 14.3594 12.9102 14.3711 12.8984 14.3906C12.8711 14.418 12.8672 14.4492 12.8672 14.4805C12.8281 14.5039 12.8203 14.457 12.8164 14.4297C12.8164 14.3984 12.7852 14.4063 12.7656 14.418C12.7344 14.4297 12.7227 14.457 12.7031 14.4766V14.5391C12.7109 14.5664 12.7422 14.5547 12.7578 14.5508C12.7891 14.5391 12.8008 14.5703 12.7773 14.5898C12.7578 14.6055 12.7109 14.5977 12.7188 14.6328H12.7656C12.7969 14.6211 12.832 14.5977 12.8359 14.5625C12.8398 14.5313 12.8867 14.5352 12.9102 14.5273C12.9375 14.5195 12.9766 14.5156 12.9883 14.5586C13.0078 14.5781 13.0547 14.6055 13.0781 14.5742C13.0898 14.5664 13.0977 14.5547 13.1016 14.543C13.1094 14.5313 13.1133 14.5195 13.1094 14.5039C13.1055 14.4805 13.1484 14.4805 13.1602 14.4961C13.1758 14.5195 13.2227 14.5156 13.2461 14.4961C13.2734 14.4805 13.2773 14.4492 13.3125 14.4492L13.4766 14.4023C13.5195 14.3945 13.4688 14.3672 13.457 14.3477C13.4297 14.3359 13.3984 14.3984 13.3633 14.3672C13.332 14.3477 13.3359 14.3086 13.3242 14.2734C13.3164 14.2305 13.3203 14.1836 13.2891 14.1523C13.2734 14.1328 13.2422 14.1289 13.2148 14.1289ZM13.0117 14.4102C13.0156 14.4102 13.0195 14.4102 13.0273 14.418C13.0391 14.4258 13.0469 14.4375 13.0469 14.4492C13.0469 14.4531 13.0469 14.4531 13.0391 14.457L13.0234 14.4648C13.0156 14.4648 13.0039 14.4531 13.0039 14.4492V14.4375C12.9961 14.4258 12.9961 14.4258 13.0039 14.418L13.0117 14.4102ZM13.207 14.4258C13.2188 14.4258 13.2227 14.4258 13.2305 14.4336C13.2344 14.4453 13.2305 14.4492 13.2188 14.457L13.2031 14.4648L13.1914 14.4531C13.1836 14.4492 13.1836 14.4492 13.1836 14.4414C13.1836 14.4336 13.1953 14.4258 13.207 14.4219V14.4258ZM12.9375 14.4258C12.9414 14.4258 12.9453 14.4258 12.9492 14.4297C12.9531 14.4375 12.957 14.4375 12.957 14.4492V14.4648C12.957 14.4766 12.957 14.4727 12.9375 14.4727C12.9219 14.4727 12.918 14.4727 12.918 14.4531C12.918 14.4414 12.918 14.4375 12.9258 14.4336C12.9297 14.4258 12.9375 14.4258 12.9375 14.4258ZM12.7734 14.4688C12.7773 14.4688 12.7812 14.4727 12.7812 14.4727C12.7852 14.4766 12.7852 14.4766 12.7852 14.4805C12.7852 14.4883 12.7852 14.4961 12.7812 14.5C12.7695 14.5039 12.7578 14.5039 12.75 14.5C12.75 14.4961 12.75 14.4961 12.75 14.4961C12.7422 14.4922 12.7422 14.4883 12.75 14.4883V14.4844L12.7578 14.4766C12.7578 14.4727 12.7617 14.4688 12.7656 14.4688C12.7656 14.4688 12.7695 14.4688 12.7734 14.4688ZM13.0508 14.5039L13.0664 14.5078V14.5273H13.0273V14.5195C13.0273 14.5156 13.0273 14.5117 13.0312 14.5078L13.0508 14.5039ZM12.5352 14.6484C12.5352 14.6484 12.5273 14.6445 12.5352 14.6445C12.5352 14.6328 12.5508 14.6328 12.5586 14.625C12.5742 14.6172 12.5898 14.6094 12.6016 14.5938C12.6016 14.582 12.6133 14.5781 12.6133 14.5664L12.6094 14.5234C12.6055 14.5117 12.5977 14.5 12.5859 14.4922C12.5742 14.4883 12.5625 14.4883 12.5625 14.4766C12.5625 14.4648 12.5703 14.457 12.5742 14.4492L12.5898 14.4102C12.6016 14.4023 12.6133 14.4102 12.6133 14.418L12.6289 14.4492C12.6406 14.457 12.6445 14.4648 12.6484 14.4766C12.6523 14.4883 12.6602 14.5 12.6602 14.5078L12.6641 14.5469C12.6641 14.5625 12.6641 14.5781 12.6602 14.5938L12.6406 14.6172C12.6328 14.6289 12.625 14.6367 12.6133 14.6406C12.6016 14.6445 12.5977 14.6523 12.5859 14.6523H12.5391L12.5352 14.6484ZM12.3281 14.6602C12.3242 14.6563 12.3203 14.6523 12.3203 14.6445C12.3203 14.6328 12.3203 14.6328 12.3281 14.625C12.3438 14.6133 12.3477 14.6133 12.3711 14.625C12.3945 14.6367 12.4023 14.6367 12.4023 14.6289C12.4062 14.6211 12.418 14.6133 12.4336 14.6133C12.4375 14.6133 12.4414 14.6172 12.4453 14.6172C12.4531 14.625 12.457 14.6289 12.457 14.6406C12.457 14.6563 12.457 14.6563 12.4453 14.6641C12.4375 14.6719 12.4375 14.6719 12.4258 14.6719C12.4219 14.668 12.4141 14.668 12.4102 14.6641C12.4063 14.6602 12.4023 14.6563 12.4023 14.6523C12.4023 14.6445 12.4023 14.6445 12.3945 14.6484L12.3906 14.6523C12.3828 14.6523 12.3711 14.6602 12.3672 14.668L12.3516 14.6719C12.3398 14.6719 12.3398 14.6719 12.3281 14.6602ZM11.7344 14.3945C11.7148 14.3945 11.6953 14.4102 11.6914 14.4336C11.6953 14.4531 11.7148 14.4766 11.7031 14.5C11.7109 14.5273 11.6797 14.5391 11.6562 14.5273C11.6445 14.4961 11.6406 14.4648 11.6172 14.4375C11.5938 14.4297 11.5859 14.4688 11.5664 14.4844C11.5781 14.5039 11.6016 14.5273 11.6055 14.5547C11.6094 14.582 11.5937 14.6133 11.5703 14.625C11.5508 14.6445 11.5195 14.6406 11.4961 14.6445C11.4648 14.6602 11.5156 14.668 11.5312 14.668C11.5625 14.6719 11.5937 14.668 11.6211 14.6445C11.6445 14.6328 11.6406 14.5938 11.668 14.5898L11.8125 14.5977C11.8359 14.6055 11.875 14.5938 11.8906 14.6133C11.8906 14.6445 11.9219 14.668 11.9492 14.6797C11.9648 14.6836 11.9805 14.6641 11.9922 14.6602C12.0234 14.6523 12.0156 14.6172 12.0312 14.6016H12.1836C12.1875 14.6016 12.1914 14.5859 12.1992 14.5781L12.1953 14.5234C12.1875 14.5 12.1953 14.4688 12.1797 14.4492C12.1523 14.4414 12.1328 14.4648 12.1094 14.4648C12.0781 14.4766 12.0586 14.5039 12.0547 14.5352C12.0391 14.5625 12.0117 14.5273 12.0234 14.5039L12.0195 14.4766C12.0078 14.4609 11.9805 14.4648 11.957 14.4648L11.8672 14.457C11.8398 14.457 11.8125 14.4609 11.7852 14.4531C11.7578 14.4531 11.7578 14.4258 11.7578 14.3984C11.75 14.3945 11.7422 14.3945 11.7344 14.3945ZM11.7969 14.5039L11.8242 14.5078H11.8633C11.8945 14.5156 11.9258 14.5156 11.9531 14.5156C11.9609 14.5156 11.9688 14.5195 11.9727 14.5273V14.5859C11.9727 14.5938 11.9727 14.6055 11.9688 14.6094C11.9648 14.6133 11.9648 14.6133 11.9609 14.6172C11.957 14.6133 11.9531 14.6133 11.9492 14.6094C11.9453 14.6094 11.9414 14.6055 11.9414 14.6016V14.5586C11.9336 14.5547 11.9258 14.5508 11.918 14.5508L11.8398 14.5469L11.7812 14.543C11.7734 14.5391 11.7617 14.543 11.7539 14.5313C11.7461 14.5273 11.7578 14.5156 11.7656 14.5117C11.7773 14.5078 11.7852 14.5039 11.7969 14.5039ZM12.1367 14.5156C12.1367 14.5156 12.1406 14.5156 12.1406 14.5234L12.1484 14.5391C12.1484 14.5391 12.1484 14.543 12.1406 14.543C12.125 14.5508 12.1094 14.5508 12.1055 14.543C12.1055 14.5391 12.1055 14.5273 12.1094 14.5273L12.1367 14.5156Z" fill="#C09300"/>
<path d="M12 12.8164C12.9765 12.0664 12.8945 10.9609 12.8945 10.9609L12.8203 10.9688C12.6132 10.9688 12.1211 10.8477 12.0078 10.6992C11.8906 10.8359 11.3867 10.9727 11.1796 10.9727L11.1054 10.9609C11.1054 10.9609 11.0195 12.0625 12 12.8164Z" fill="white"/>
<path fill-rule="evenodd" clip-rule="evenodd" d="M12.0084 10.673L12.0208 10.6892C12.0467 10.7232 12.0959 10.7572 12.1606 10.7892C12.2248 10.8209 12.3025 10.8496 12.3835 10.8738C12.5453 10.9223 12.7179 10.9521 12.8193 10.9523L12.9096 10.9428L12.9108 10.9597L12.9111 10.9632L12.9116 10.9728C12.9119 10.9813 12.9123 10.9937 12.9125 11.0097C12.9128 11.0418 12.9122 11.0883 12.9084 11.1465C12.9008 11.2627 12.8804 11.4255 12.8292 11.6118C12.727 11.9845 12.5017 12.4518 12.0099 12.8295L11.9999 12.8372L11.9898 12.8295C11.4961 12.4499 11.2708 11.9826 11.169 11.6103C11.1181 11.4242 11.0981 11.2618 11.0908 11.1459C11.0871 11.0879 11.0866 11.0415 11.087 11.0095C11.0873 10.9935 11.0877 10.9811 11.0881 10.9727L11.0886 10.9631L11.0888 10.9606L11.0903 10.9419L11.1808 10.9562C11.2821 10.9559 11.4573 10.9223 11.6224 10.8714C11.7052 10.846 11.7848 10.8163 11.8508 10.7847C11.9173 10.7529 11.9682 10.7199 11.9951 10.6885L12.0084 10.673ZM11.1208 10.9801C11.1205 10.9877 11.1202 10.9978 11.12 11.01C11.1196 11.0412 11.1201 11.0867 11.1237 11.1438C11.1309 11.258 11.1506 11.4181 11.2008 11.6016C11.3005 11.9661 11.5201 12.4227 11.9999 12.7956C12.4777 12.4246 12.6973 11.968 12.7974 11.6031C12.8479 11.4193 12.868 11.2588 12.8755 11.1443C12.8792 11.0871 12.8798 11.0414 12.8795 11.0101C12.8794 10.9973 12.8791 10.987 12.8788 10.9792L12.8202 10.9853C12.7144 10.9853 12.5379 10.9545 12.374 10.9055C12.2919 10.8809 12.2124 10.8515 12.146 10.8188C12.0882 10.7902 12.0389 10.7585 12.007 10.724C11.9741 10.7558 11.9239 10.7864 11.8651 10.8145C11.7972 10.847 11.7159 10.8772 11.6322 10.903C11.465 10.9544 11.2855 10.9892 11.1795 10.9892H11.1769L11.1208 10.9801Z" fill="#C09300"/>
<path d="M12.8164 11.0391H12.793C12.6055 11.0391 12.1758 10.9453 12.0078 10.8047C11.832 10.9336 11.3906 11.043 11.207 11.043C11.1992 11.043 11.1914 11.043 11.1836 11.0391C11.1875 11.2305 11.2109 11.418 11.2617 11.6016C11.3828 12.043 11.6406 12.4336 12 12.7148C12.3594 12.4297 12.6172 12.0391 12.7383 11.5977C12.7891 11.418 12.8125 11.2305 12.8164 11.0391Z" fill="white"/>
<path fill-rule="evenodd" clip-rule="evenodd" d="M12.0086 10.7876L12.0168 10.7944C12.0984 10.8627 12.2453 10.9207 12.3969 10.9616C12.5481 11.0025 12.7011 11.0256 12.7933 11.0256H12.8305L12.8302 11.0394C12.8263 11.2317 12.8027 11.4203 12.7516 11.6013C12.6297 12.0455 12.3703 12.4385 12.0087 12.7255L12.0003 12.7321L11.992 12.7255C11.6303 12.4425 11.3708 12.0494 11.249 11.6052C11.1979 11.4203 11.1743 11.2317 11.1704 11.0394L11.1699 11.017L11.1899 11.027C11.1945 11.0293 11.1992 11.0295 11.2073 11.0295C11.2973 11.0295 11.4522 11.0026 11.607 10.9592C11.762 10.9158 11.9143 10.8568 12.0001 10.7939L12.0086 10.7876ZM11.6143 10.9852C11.4586 11.0288 11.3009 11.0565 11.2073 11.0565C11.2071 11.0565 11.2076 11.0565 11.2073 11.0565C11.2047 11.0565 11.201 11.0565 11.1978 11.0563C11.2027 11.2407 11.2261 11.4213 11.275 11.598C11.3944 12.0332 11.6475 12.4187 12.0002 12.6977C12.353 12.4149 12.6061 12.0294 12.7255 11.5941C12.7747 11.4201 12.7982 11.2383 12.8029 11.0526H12.7933C12.6979 11.0526 12.5423 11.0289 12.3898 10.9877C12.2424 10.9479 12.0951 10.891 12.0076 10.8217C11.9165 10.8853 11.765 10.943 11.6143 10.9852Z" fill="#C09300"/>
<path d="M11.6836 10.9492C11.5195 11.0039 11.3516 11.0313 11.1836 11.0391L11.1875 11.1641C11.1953 11.3086 11.2227 11.457 11.2617 11.5977C11.3437 11.8945 11.4844 12.168 11.6836 12.4023V10.9492ZM12.3008 10.9492V12.4258C12.5039 12.1875 12.6563 11.9023 12.7383 11.5977C12.7773 11.457 12.8008 11.3086 12.8125 11.1641L12.8164 11.043H12.793C12.6797 11.043 12.4805 11.0078 12.3008 10.9453V10.9492Z" fill="#C09300"/>
<path d="M12.384 10.5869C12.4051 10.5869 12.3569 10.4784 12.3569 10.4784C12.4111 10.5327 12.6101 10.5447 12.6101 10.5447C12.4895 10.4905 12.3689 10.0895 12.384 9.76987C12.3961 9.44727 12.3388 9.32063 12.2905 9.27541C12.2302 9.21511 12.0373 9.16084 11.9076 9.15481C11.8353 9.15179 11.8473 9.20908 11.8473 9.20908C11.7147 9.17591 11.579 9.16084 11.5187 9.20305C11.4614 9.24224 11.4494 9.42918 11.4916 9.39601C11.5911 9.3146 11.6785 9.38998 11.7388 9.47742C11.7931 9.55279 11.787 9.77289 11.7117 10.0261C11.6303 10.2945 11.4102 10.5598 11.4102 10.5598C11.5308 10.5598 11.6966 10.4543 11.6966 10.4543L11.6574 10.6201C11.784 10.5598 11.8835 10.4663 11.8835 10.4663L12.0041 10.593C12.0433 10.5387 12.1247 10.4663 12.1247 10.4663C12.1247 10.4663 12.2302 10.5719 12.384 10.5869Z" fill="white"/>
<path d="M11.6362 10.6534L11.6754 10.4906C11.6182 10.5238 11.5066 10.578 11.4161 10.578H11.377L11.4011 10.5479C11.4041 10.5449 11.6182 10.2795 11.6965 10.0202C11.7749 9.75794 11.7719 9.55292 11.7267 9.48659C11.6845 9.42327 11.6362 9.38709 11.594 9.38106C11.5639 9.37805 11.5337 9.38709 11.5036 9.41121C11.4915 9.42327 11.4795 9.42026 11.4734 9.41724C11.4614 9.41121 11.4523 9.39614 11.4493 9.37202C11.4433 9.32378 11.4614 9.22127 11.5096 9.1881C11.582 9.13986 11.7327 9.16398 11.8292 9.1881C11.8322 9.17905 11.8352 9.17001 11.8413 9.16096C11.8563 9.14589 11.8774 9.13684 11.9076 9.13986C12.0403 9.14589 12.2392 9.20318 12.3026 9.26649C12.3538 9.31775 12.4141 9.45041 12.4021 9.77603C12.387 10.1047 12.5136 10.4876 12.6191 10.5328L12.6101 10.569C12.592 10.569 12.4714 10.5599 12.393 10.5268C12.4141 10.5841 12.4051 10.5931 12.4021 10.5991C12.399 10.6052 12.39 10.6082 12.381 10.6082C12.2543 10.5961 12.1609 10.5238 12.1277 10.4936C12.1036 10.5147 12.0523 10.566 12.0222 10.6052L12.0101 10.6232L11.8865 10.4936C11.8533 10.5207 11.7689 10.5901 11.6694 10.6383L11.6362 10.6534ZM11.7297 10.4122L11.6875 10.5841C11.793 10.5268 11.8744 10.4514 11.8744 10.4514L11.8865 10.4393L12.0041 10.5629C12.0463 10.5117 12.1096 10.4544 12.1126 10.4514L12.1247 10.4393L12.1367 10.4514C12.1367 10.4514 12.2272 10.5449 12.3629 10.5629C12.3568 10.5449 12.3448 10.5117 12.3327 10.4815L12.3629 10.4604C12.393 10.4906 12.4774 10.5087 12.5438 10.5147C12.4352 10.3911 12.3448 10.0474 12.3568 9.76397C12.3689 9.43533 12.3086 9.32076 12.2694 9.28157C12.2121 9.22428 12.0252 9.17302 11.8986 9.16699C11.8865 9.16699 11.8714 9.16699 11.8624 9.17604C11.8533 9.18509 11.8563 9.20016 11.8563 9.20016L11.8624 9.2273L11.8352 9.22127C11.6875 9.18207 11.5699 9.17905 11.5217 9.21222C11.5066 9.22428 11.4915 9.25443 11.4825 9.29664C11.4764 9.32981 11.4764 9.35694 11.4795 9.37202C11.5156 9.34488 11.5518 9.33584 11.591 9.33885C11.6453 9.3479 11.6965 9.38709 11.7478 9.45945C11.8081 9.54689 11.796 9.77904 11.7237 10.0233C11.6604 10.2373 11.5096 10.4484 11.4463 10.5298C11.5548 10.5117 11.6815 10.4303 11.6815 10.4303L11.7297 10.4122Z" fill="#C09300"/>
<path d="M12.3417 10.4905C12.2271 10.3217 12.2 9.87246 12.197 9.85437L12.2361 9.85136C12.2361 9.85739 12.2633 10.3096 12.3748 10.4694L12.3417 10.4905ZM11.9045 10.4755L11.8713 10.4574C11.9558 10.3036 11.9829 9.80915 11.9829 9.80312L12.0221 9.80613C12.0191 9.82724 11.9949 10.3127 11.9045 10.4755ZM12.1125 10.4724C12.0794 10.376 12.0794 9.84533 12.0794 9.82422H12.1186C12.1186 9.97497 12.1246 10.385 12.1517 10.4604L12.1125 10.4724ZM11.7176 10.4664L11.6904 10.4423C11.811 10.3066 11.8804 9.82121 11.8804 9.81518L11.9196 9.82121C11.9135 9.8393 11.8442 10.3217 11.7176 10.4664Z" fill="#C09300"/>
<path d="M11.7749 9.57709C11.7688 9.53488 11.7598 9.4987 11.7417 9.4776C11.6814 9.39016 11.594 9.3178 11.4945 9.39619C11.4945 9.39619 11.5276 9.29067 11.603 9.28765C11.6603 9.28464 11.79 9.32986 11.9015 9.52282C11.9015 9.52282 11.8171 9.50473 11.796 9.52282C11.7598 9.55599 11.7749 9.57709 11.7749 9.57709ZM11.4824 9.26655C11.4915 9.23941 11.5035 9.21529 11.5216 9.20323C11.5819 9.16404 11.7146 9.1761 11.8503 9.20926C11.8503 9.20926 11.8382 9.15198 11.9106 9.15499C12.0372 9.16102 12.2332 9.21529 12.2935 9.27559C12.3085 9.29067 12.3236 9.31479 12.3387 9.34795H12.3357C12.3055 9.30574 12.2211 9.30876 12.203 9.31177C12.1698 9.31479 12.1518 9.31479 12.1095 9.32383C12.0884 9.32986 12.0583 9.33589 12.0432 9.34795C12.0312 9.36001 12.0191 9.39619 11.998 9.39619C11.9648 9.39619 11.9678 9.38715 11.9588 9.3781C11.9467 9.36604 11.9437 9.34494 11.9317 9.34795C11.8985 9.35398 11.8442 9.32685 11.7779 9.27559C11.7116 9.22434 11.6844 9.20926 11.597 9.21529C11.5096 9.22132 11.4824 9.26956 11.4824 9.26956V9.26655Z" fill="#C09300"/>
<path d="M11.7689 9.57985C11.7689 9.57985 11.7629 9.5708 11.7659 9.55874C11.7599 9.52256 11.7508 9.49844 11.7388 9.47734C11.6936 9.41101 11.6453 9.37181 11.5971 9.36578C11.5639 9.35975 11.5307 9.37181 11.4976 9.39895L11.4825 9.41101L11.4885 9.39292C11.4885 9.3899 11.5247 9.28438 11.6001 9.27835C11.6574 9.27533 11.79 9.32056 11.9046 9.51653L11.9106 9.52859L11.8986 9.52558C11.8684 9.51955 11.8111 9.5105 11.7991 9.52256C11.784 9.53764 11.778 9.54668 11.775 9.55573C11.775 9.56176 11.778 9.56779 11.778 9.57382L11.7689 9.57985ZM11.582 9.35674C11.588 9.35674 11.5941 9.35674 11.6001 9.35674C11.6513 9.36277 11.6996 9.40196 11.7478 9.47131C11.7599 9.48638 11.7689 9.5105 11.775 9.53764C11.778 9.53161 11.787 9.52256 11.7961 9.51352C11.8142 9.49844 11.8684 9.50749 11.8925 9.5105C11.7539 9.28136 11.6122 9.28739 11.6031 9.28739C11.5519 9.29041 11.5187 9.34769 11.5066 9.37784C11.5307 9.36578 11.5549 9.35674 11.582 9.35674ZM11.9951 9.40196C11.9679 9.40196 11.9619 9.39593 11.9559 9.38689C11.9559 9.38387 11.9529 9.38387 11.9529 9.38086C11.9498 9.37483 11.9468 9.37181 11.9438 9.36578C11.9408 9.35975 11.9348 9.35071 11.9317 9.35071C11.8986 9.35674 11.8443 9.33262 11.775 9.27533C11.7086 9.22106 11.6845 9.209 11.5971 9.21503C11.5157 9.22106 11.4885 9.26629 11.4885 9.2693L11.4795 9.26327L11.4825 9.25724C11.4885 9.23915 11.5006 9.20599 11.5217 9.19091C11.5941 9.14267 11.7539 9.17282 11.8473 9.19694C11.8473 9.1879 11.8473 9.17282 11.8594 9.16076C11.8714 9.1487 11.8895 9.14267 11.9137 9.14267C12.0463 9.1487 12.2393 9.20297 12.2996 9.26629C12.3177 9.28739 12.3327 9.31151 12.3448 9.33865L12.3478 9.34468H12.3358L12.3327 9.34166C12.3056 9.30548 12.2302 9.30548 12.2031 9.3085C12.1941 9.3085 12.185 9.31151 12.179 9.31151C12.1579 9.31453 12.1398 9.31453 12.1096 9.32357L12.1036 9.32659C12.0855 9.3296 12.0584 9.33563 12.0463 9.34769C12.0433 9.35071 12.0373 9.35975 12.0343 9.36578C12.0192 9.38689 12.0101 9.40196 11.9951 9.40196ZM11.9287 9.34468C11.9378 9.34468 11.9438 9.35372 11.9498 9.36277C11.9529 9.3688 11.9559 9.37181 11.9589 9.37483C11.9619 9.37784 11.9619 9.37784 11.9619 9.38086C11.9649 9.38689 11.9679 9.3899 11.992 9.3899C12.0011 9.3899 12.0101 9.37483 12.0162 9.36277C12.0222 9.35372 12.0252 9.34468 12.0312 9.34166C12.0463 9.3296 12.0735 9.32357 12.0946 9.31754L12.1006 9.31453C12.1307 9.30548 12.1518 9.30548 12.1729 9.30247C12.182 9.30247 12.188 9.30247 12.1971 9.29945C12.1971 9.29945 12.2755 9.29041 12.3177 9.32056C12.3086 9.30247 12.2966 9.28739 12.2845 9.27232C12.2272 9.21503 12.0343 9.16076 11.9076 9.15473C11.8865 9.15473 11.8714 9.15775 11.8624 9.16981C11.8503 9.18488 11.8534 9.20297 11.8534 9.20297L11.8564 9.21202L11.8473 9.209C11.6936 9.1698 11.576 9.16679 11.5247 9.19996C11.5157 9.20599 11.5036 9.22106 11.4976 9.23915C11.5157 9.22408 11.5458 9.20599 11.5971 9.20297C11.6845 9.19694 11.7116 9.209 11.781 9.26327C11.8473 9.32357 11.8986 9.35071 11.9287 9.34468Z" fill="#C09300"/>
<path d="M11.9767 9.34467C11.9967 9.34467 12.0128 9.32852 12.0128 9.3086C12.0128 9.28869 11.9967 9.27254 11.9767 9.27254C11.9568 9.27254 11.9407 9.28869 11.9407 9.3086C11.9407 9.32852 11.9568 9.34467 11.9767 9.34467Z" fill="white"/>
<path fill-rule="evenodd" clip-rule="evenodd" d="M12 23.3C18.2408 23.3 23.3 18.2408 23.3 12C23.3 5.75918 18.2408 0.7 12 0.7C5.75918 0.7 0.7 5.75918 0.7 12C0.7 18.2408 5.75918 23.3 12 23.3ZM12 24C18.6274 24 24 18.6274 24 12C24 5.37258 18.6274 0 12 0C5.37258 0 0 5.37258 0 12C0 18.6274 5.37258 24 12 24Z" fill="#D9D9D9"/>
</g>
<defs>
<clipPath id="clip0_3024_15222">
<rect width="24" height="24" fill="white"/>
</clipPath>
</defs>
</svg>
